<svg data-v-fde0c5aa="" xmlns="http://www.w3.org/2000/svg" viewBox="0 0 300 300" class="font"><!----><defs data-v-fde0c5aa=""><!----></defs><rect data-v-fde0c5aa="" fill="#257DC8" x="0" y="0" width="300px" height="300px" class="logo-background-square"></rect><defs data-v-fde0c5aa=""><!----></defs><g data-v-fde0c5aa="" id="ea10fdb7-2b60-423b-b23a-8588dbf27259" fill="#21C7D4" transform="matrix(9.310199230360988,0,0,9.310199230360988,28.92086238313655,49.636050343351016)"><path d="M4.69 11.65L2.37 11.65L2.37 15.68L1.19 15.68L1.19 5.88L4.69 5.88L4.69 5.88Q5.45 5.88 6.01 6.10L6.01 6.10L6.01 6.10Q6.57 6.31 6.94 6.68L6.94 6.68L6.94 6.68Q7.31 7.04 7.50 7.53L7.50 7.53L7.50 7.53Q7.69 8.01 7.69 8.54L7.69 8.54L7.69 8.96L7.69 8.96Q7.69 9.49 7.50 9.98L7.50 9.98L7.50 9.98Q7.31 10.47 6.93 10.84L6.93 10.84L6.93 10.84Q6.55 11.21 5.99 11.43L5.99 11.43L5.99 11.43Q5.43 11.65 4.69 11.65L4.69 11.65ZM2.37 6.97L2.37 10.56L4.55 10.56L4.55 10.56Q6.51 10.56 6.51 8.88L6.51 8.88L6.51 8.62L6.51 8.62Q6.51 7.88 6.03 7.43L6.03 7.43L6.03 7.43Q5.54 6.97 4.55 6.97L4.55 6.97L2.37 6.97ZM9.88 15.68L9.88 5.88L15.82 5.88L15.82 6.97L11.06 6.97L11.06 10.22L15.74 10.22L15.74 11.31L11.06 11.31L11.06 14.59L15.90 14.59L15.90 15.68L9.88 15.68ZM21.83 11.65L19.50 11.65L19.50 15.68L18.33 15.68L18.33 5.88L21.83 5.88L21.83 5.88Q22.58 5.88 23.14 6.10L23.14 6.10L23.14 6.10Q23.70 6.31 24.07 6.68L24.07 6.68L24.07 6.68Q24.44 7.04 24.63 7.53L24.63 7.53L24.63 7.53Q24.82 8.01 24.82 8.54L24.82 8.54L24.82 8.96L24.82 8.96Q24.82 9.49 24.63 9.98L24.63 9.98L24.63 9.98Q24.44 10.47 24.07 10.84L24.07 10.84L24.07 10.84Q23.69 11.21 23.13 11.43L23.13 11.43L23.13 11.43Q22.57 11.65 21.83 11.65L21.83 11.65ZM19.50 6.97L19.50 10.56L21.69 10.56L21.69 10.56Q23.65 10.56 23.65 8.88L23.65 8.88L23.65 8.62L23.65 8.62Q23.65 7.88 23.16 7.43L23.16 7.43L23.16 7.43Q22.68 6.97 21.69 6.97L21.69 6.97L19.50 6.97Z"></path></g><!----><!----></svg>